<?xml version="1.0" encoding="UTF-8"?>
<svg width="24px" height="24px" viewBox="0 0 24 24" version="1.1" xmlns="http://www.w3.org/2000/svg" xmlns:xlink="http://www.w3.org/1999/xlink">
    <!-- Generator: Sketch 55 (78076) - https://sketchapp.com -->
    <title>Chinese</title>
    <desc>Created with Sketch.</desc>
    <defs>
        <rect id="path-1" x="0" y="0" width="24" height="24" rx="12"></rect>
    </defs>
    <g id="BB-DT-UI" stroke="none" stroke-width="1" fill="none" fill-rule="evenodd">
        <g id="BB-DT-UI-0100-About-Us" transform="translate(-1182.000000, -82.000000)">
            <g id="Navigation">
                <g id="Group-4" transform="translate(1182.000000, 82.000000)">
                    <g id="Chinese">
                        <mask id="mask-2" fill="white">
                            <use xlink:href="#path-1"></use>
                        </mask>
                        <use id="Rectangle" fill="#FF8989" xlink:href="#path-1"></use>
                        <g id="china" mask="url(#mask-2)" fill-rule="nonzero">
                            <path d="M22.2025781,0 L1.79742187,0 C0.804703125,0 0,1.22822477 0,2.74341929 L0,21.2565807 C0,22.7717037 0.804703125,24 1.79742187,24 L22.2025781,24 C23.19525,24 24,22.7717752 24,21.2565807 L24,2.74341929 C24,1.22822477 23.1952969,0 22.2025781,0 Z" id="Path" fill="#FF4B55"></path>
                            <g id="Group" transform="translate(3.000000, 6.000000)" fill="#FFE15A">
                                <path d="M4.14726563,2.49978966 L4.90591947,4.77448918 L7.30375601,4.79305889 C7.61421274,4.79540264 7.7429387,5.19167668 7.49314904,5.37602163 L5.56424279,6.80039062 L6.28746995,9.08662861 C6.38103966,9.38266226 6.04408053,9.62740385 5.79149639,9.4469351 L3.84077524,8.05249399 L1.89005409,9.44684495 C1.63746995,9.62740385 1.30051082,9.38248197 1.39408053,9.08653846 L2.11730769,6.80030048 L0.188401442,5.37602163 C-0.0613882212,5.19158654 0.0673377404,4.79540264 0.377794471,4.79305889 L2.77563101,4.77448918 L3.53428486,2.49978966 C3.63254207,2.20528846 4.04909856,2.20528846 4.14726563,2.49978966 Z" id="Path"></path>
                                <path d="M12.8544772,3.06030649 L13.3984976,3.80201322 L14.2764123,3.52743389 C14.3900841,3.49191707 14.4835637,3.62154447 14.4139724,3.71808894 L13.8765325,4.46457332 L14.4089243,5.21466346 C14.4778846,5.3117488 14.3835036,5.44074519 14.2701022,5.40441707 L13.3939904,5.12397837 L12.8451022,5.86216947 C12.7740685,5.95772236 12.6221755,5.90778245 12.6217248,5.78879207 L12.6176683,4.86887019 L11.7459736,4.57490986 C11.633113,4.53677885 11.6336538,4.37704327 11.7467849,4.33972356 L12.6202825,4.0516226 L12.6305589,3.13179087 C12.6318209,3.01307091 12.7840745,2.96430288 12.8544772,3.06030649 Z" id="Path"></path>
                                <path d="M9.54239784,0.84906851 L10.4568209,0.948407452 L10.8469651,0.115384615 C10.8975361,0.00757211538 11.05628,0.0260516827 11.0805288,0.142608173 L11.2685697,1.04296875 L12.1813702,1.15655048 C12.2995493,1.17124399 12.3310096,1.32791466 12.2276142,1.38713942 L11.429387,1.84417067 L11.6034555,2.74741587 C11.6259916,2.86442308 11.4867188,2.94266827 11.3984675,2.86271034 L10.7170673,2.24477163 L9.91189904,2.68936298 C9.80769231,2.74696514 9.69005409,2.63861178 9.73891226,2.52998798 L10.1159856,1.69092548 L9.44423077,1.0624399 C9.35742188,0.981490385 9.42403846,0.836268029 9.54239784,0.84906851 Z" id="Path"></path>
                                <path d="M10.988131,9.76379207 L10.4442007,10.5056791 L9.56628606,10.2310998 C9.45261418,10.1955829 9.35913462,10.3251202 9.42872596,10.4217548 L9.96616587,11.1682392 L9.43377404,11.9183293 C9.3648137,12.0154147 9.45919471,12.1444111 9.57259615,12.1080829 L10.4486178,11.8276442 L10.997506,12.5658353 C11.0685397,12.6613882 11.2204327,12.6114483 11.2208834,12.4924579 L11.2249399,11.5725361 L12.0966346,11.2785757 C12.2094952,11.2404447 12.2089543,11.0807091 12.0958233,11.0433894 L11.2223257,10.7552885 L11.2120493,9.83545673 C11.210607,9.71655649 11.0585337,9.66769832 10.988131,9.76379207 Z" id="Path"></path>
                                <path d="M14.30003,7.68578726 L13.3855168,7.7851262 L12.9953726,6.95210337 C12.9448017,6.84429087 12.7861478,6.86277043 12.7618089,6.97932692 L12.5736779,7.8796875 L11.6608774,7.99326923 C11.5426983,8.00796274 11.511238,8.16463341 11.6146334,8.22385817 L12.4128606,8.68088942 L12.2387921,9.58413462 C12.216256,9.70114183 12.3555288,9.77938702 12.44378,9.69942909 L13.1251803,9.08149038 L13.9303486,9.52608173 C14.0345553,9.58368389 14.1521935,9.47533053 14.1033353,9.36670673 L13.726262,8.52764423 L14.3980168,7.89915865 C14.4851863,7.81820913 14.4185697,7.67298678 14.30003,7.68578726 Z" id="Path"></path>
                            </g>
                        </g>
                    </g>
                </g>
            </g>
        </g>
    </g>
</svg>