<?xml version="1.0" encoding="UTF-8"?>
<svg width="24px" height="24px" viewBox="0 0 24 24" version="1.1" xmlns="http://www.w3.org/2000/svg" xmlns:xlink="http://www.w3.org/1999/xlink">
    <!-- Generator: Sketch 55 (78076) - https://sketchapp.com -->
    <title>English</title>
    <desc>Created with Sketch.</desc>
    <defs>
        <rect id="path-1" x="0" y="0" width="24" height="24" rx="12"></rect>
    </defs>
    <g id="BB-DT-UI" stroke="none" stroke-width="1" fill="none" fill-rule="evenodd">
        <g id="BB-DT-UI-0100-About-Us" transform="translate(-1182.000000, -38.000000)">
            <g id="Navigation">
                <g id="Group-4" transform="translate(1182.000000, 38.000000)">
                    <g id="English">
                        <mask id="mask-2" fill="white">
                            <use xlink:href="#path-1"></use>
                        </mask>
                        <use id="Rectangle" fill="#FF8989" xlink:href="#path-1"></use>
                        <g mask="url(#mask-2)">
                            <g transform="translate(-6.000000, -0.000000)">
                                <path d="M36.2911579,24.2140838 L0.636717349,24.2140838 C0.285109162,24.2140838 0,23.9289747 0,23.5773665 L0,0.656623782 C0,0.305015595 0.285109162,0.0199064327 0.636717349,0.0199064327 L36.29123,0.0199064327 C36.6428382,0.0199064327 36.9279474,0.305015595 36.9279474,0.656623782 L36.9279474,23.5773665 C36.9278752,23.9290468 36.6427661,24.2140838 36.2911579,24.2140838 Z" id="Path" fill="#F5F5F5" fill-rule="nonzero"></path>
                                <g id="Group" stroke-width="1" fill="none" fill-rule="evenodd">
                                    <path d="M36.9279474,1.88108577 L0,1.88108577 L0,0.656623782 C0,0.305015595 0.285109162,0.0199064327 0.636717349,0.0199064327 L36.29123,0.0199064327 C36.6428382,0.0199064327 36.9279474,0.305015595 36.9279474,0.656623782 L36.9279474,1.88108577 L36.9279474,1.88108577 Z" id="Path" fill="#FF4B55" fill-rule="nonzero"></path>
                                    <rect id="Rectangle" fill="#FF4B55" fill-rule="nonzero" x="0" y="7.46426316" width="36.9278752" height="1.86110721"></rect>
                                    <rect id="Rectangle" fill="#FF4B55" fill-rule="nonzero" x="0" y="3.74190448" width="36.9278752" height="1.86110721"></rect>
                                    <path d="M36.9278752,13.0475848 L0.636717349,13.0475848 C0.285109162,13.0475848 0,12.7624756 0,12.4108674 L0,11.1864055 L36.9278752,11.1864055 L36.9278752,13.0475848 Z" id="Path" fill="#FF4B55" fill-rule="nonzero"></path>
                                    <rect id="Rectangle" fill="#FF4B55" fill-rule="nonzero" x="0" y="18.6313392" width="36.9278752" height="1.86110721"></rect>
                                    <path d="M36.2911579,24.2140838 L0.636717349,24.2140838 C0.285109162,24.2140838 0,23.9289747 0,23.5773665 L0,22.3529766 L36.9278752,22.3529766 L36.9278752,23.5774386 C36.9278752,23.9290468 36.6427661,24.2140838 36.2911579,24.2140838 Z" id="Path" fill="#FF4B55" fill-rule="nonzero"></path>
                                    <rect id="Rectangle" fill="#FF4B55" fill-rule="nonzero" x="0" y="14.9089805" width="36.9278752" height="1.86110721"></rect>
                                </g>
                                <path d="M16.5538577,0.0199785575 L0.636717349,0.0199785575 C0.285109162,0.0199785575 0,0.305015595 0,0.656623782 L0,12.4107953 C0,12.7624035 0.285109162,13.0475127 0.636717349,13.0475127 L16.5539298,13.0475127 C16.905538,13.0475127 17.1906472,12.7624035 17.1906472,12.4107953 L17.1906472,0.656623782 C17.190575,0.305015595 16.9054659,0.0199785575 16.5538577,0.0199785575 Z" id="Path" fill="#41479B" fill-rule="nonzero"></path>
                                <g id="Group" stroke-width="1" fill="none" fill-rule="evenodd" transform="translate(1.009747, 1.370370)">
                                    <path d="M5.9264191,1.19489084 L6.06735088,1.61754191 L6.5128655,1.62093177 C6.5705653,1.62143665 6.5944386,1.6950039 6.54806238,1.72926316 L6.18967446,1.99396101 L6.32411501,2.4187037 C6.3415692,2.47366277 6.27889279,2.51924561 6.23193957,2.48563548 L5.86951267,2.22656335 L5.50708577,2.48563548 C5.46013255,2.51917349 5.39760039,2.47366277 5.41491033,2.4187037 L5.54935088,1.99396101 L5.19096296,1.72926316 C5.14458674,1.69493177 5.16846004,1.62143665 5.22615984,1.62093177 L5.67167446,1.61754191 L5.81260624,1.19489084 C5.83070955,1.14022027 5.90817154,1.14022027 5.9264191,1.19489084 Z" id="Path" fill="#F5F5F5" fill-rule="nonzero"></path>
                                    <path d="M5.9264191,3.40587524 L6.06735088,3.82852632 L6.5128655,3.83191618 C6.5705653,3.83242105 6.5944386,3.9059883 6.54806238,3.94024756 L6.18967446,4.20494542 L6.32411501,4.62968811 C6.3415692,4.68464717 6.27889279,4.73023002 6.23193957,4.69661988 L5.86951267,4.43754776 L5.50708577,4.69661988 C5.46013255,4.73015789 5.39760039,4.6847193 5.41491033,4.62968811 L5.54935088,4.20494542 L5.19096296,3.94024756 C5.14458674,3.90591618 5.16846004,3.83242105 5.22615984,3.83191618 L5.67167446,3.82852632 L5.81260624,3.40587524 C5.83070955,3.35113255 5.90817154,3.35113255 5.9264191,3.40587524 Z" id="Path" fill="#F5F5F5" fill-rule="nonzero"></path>
                                    <path d="M5.9264191,5.61678752 L6.06735088,6.0394386 L6.5128655,6.04282846 C6.5705653,6.04333333 6.5944386,6.11690058 6.54806238,6.15115984 L6.18967446,6.4158577 L6.32411501,6.84060039 C6.3415692,6.89555945 6.27889279,6.9411423 6.23193957,6.90753216 L5.86951267,6.64846004 L5.50708577,6.90753216 C5.46013255,6.94107018 5.39760039,6.89555945 5.41491033,6.84060039 L5.54935088,6.4158577 L5.19096296,6.15115984 C5.14458674,6.11682846 5.16846004,6.04333333 5.22615984,6.04282846 L5.67167446,6.0394386 L5.81260624,5.61678752 C5.83070955,5.56204483 5.90817154,5.56204483 5.9264191,5.61678752 Z" id="Path" fill="#F5F5F5" fill-rule="nonzero"></path>
                                    <path d="M5.9264191,7.82769981 L6.06735088,8.25035088 L6.5128655,8.25374074 C6.5705653,8.25424561 6.5944386,8.32781287 6.54806238,8.36207212 L6.18967446,8.62676998 L6.32411501,9.05151267 C6.3415692,9.10647173 6.27889279,9.15205458 6.23193957,9.11844444 L5.86951267,8.85937232 L5.50708577,9.11844444 C5.46013255,9.15198246 5.39760039,9.10647173 5.41491033,9.05151267 L5.54935088,8.62676998 L5.19096296,8.36207212 C5.14458674,8.32774074 5.16846004,8.25424561 5.22615984,8.25374074 L5.67167446,8.25035088 L5.81260624,7.82769981 C5.83070955,7.77302924 5.90817154,7.77302924 5.9264191,7.82769981 Z" id="Path" fill="#F5F5F5" fill-rule="nonzero"></path>
                                    <path d="M7.64248343,0.110927875 L7.7834152,0.533578947 L8.22892982,0.536968811 C8.28662963,0.537473684 8.31050292,0.611040936 8.26412671,0.645300195 L7.90573879,0.909998051 L8.04017934,1.33474074 C8.05763353,1.38969981 7.99495712,1.43528265 7.9480039,1.40167251 L7.58550487,1.14260039 L7.22307797,1.40167251 C7.17612476,1.43521053 7.11359259,1.38969981 7.13090253,1.33474074 L7.26534308,0.909998051 L6.90695517,0.645300195 C6.86057895,0.610968811 6.88445224,0.537473684 6.94215205,0.536968811 L7.38766667,0.533578947 L7.52859844,0.110927875 C7.546846,0.0561851852 7.62423587,0.0561851852 7.64248343,0.110927875 Z" id="Path" fill="#F5F5F5" fill-rule="nonzero"></path>
                                    <path d="M7.64248343,2.32184016 L7.7834152,2.74449123 L8.22892982,2.74788109 C8.28662963,2.74838596 8.31050292,2.82195322 8.26412671,2.85621248 L7.90573879,3.12091033 L8.04017934,3.54565302 C8.05763353,3.60061209 7.99495712,3.64619493 7.9480039,3.6125848 L7.58550487,3.35351267 L7.22307797,3.6125848 C7.17612476,3.64612281 7.11359259,3.60061209 7.13090253,3.54565302 L7.26534308,3.12091033 L6.90695517,2.85621248 C6.86057895,2.82188109 6.88445224,2.74838596 6.94215205,2.74788109 L7.38766667,2.74449123 L7.52859844,2.32184016 C7.546846,2.26716959 7.62423587,2.26716959 7.64248343,2.32184016 Z" id="Path" fill="#F5F5F5" fill-rule="nonzero"></path>
                                    <path d="M7.64248343,4.53275244 L7.7834152,4.95540351 L8.22892982,4.95879337 C8.28662963,4.95929825 8.31050292,5.0328655 8.26412671,5.06712476 L7.90573879,5.33182261 L8.04017934,5.7565653 C8.05763353,5.81152437 7.99495712,5.85710721 7.9480039,5.82349708 L7.58550487,5.56442495 L7.22307797,5.82349708 C7.17612476,5.85703509 7.11359259,5.81152437 7.13090253,5.7565653 L7.26534308,5.33182261 L6.90695517,5.06712476 C6.86057895,5.03279337 6.88445224,4.95929825 6.94215205,4.95879337 L7.38766667,4.95540351 L7.52859844,4.53275244 C7.546846,4.47808187 7.62423587,4.47808187 7.64248343,4.53275244 Z" id="Path" fill="#F5F5F5" fill-rule="nonzero"></path>
                                    <path d="M7.64248343,6.74373684 L7.7834152,7.16638791 L8.22892982,7.16977778 C8.28662963,7.17028265 8.31050292,7.2438499 8.26412671,7.27810916 L7.90573879,7.54280702 L8.04017934,7.96754971 C8.05763353,8.02250877 7.99495712,8.06809162 7.9480039,8.03448148 L7.58550487,7.77540936 L7.22307797,8.03448148 C7.17612476,8.06801949 7.11359259,8.02250877 7.13090253,7.96754971 L7.26534308,7.54280702 L6.90695517,7.27810916 C6.86057895,7.24377778 6.88445224,7.17028265 6.94215205,7.16977778 L7.38766667,7.16638791 L7.52859844,6.74373684 C7.546846,6.68899415 7.62423587,6.68899415 7.64248343,6.74373684 Z" id="Path" fill="#F5F5F5" fill-rule="nonzero"></path>
                                    <path d="M7.64248343,8.95464912 L7.7834152,9.37730019 L8.22892982,9.38069006 C8.28662963,9.38119493 8.31050292,9.45476218 8.26412671,9.48902144 L7.90573879,9.7537193 L8.04017934,10.178462 C8.05763353,10.2334211 7.99495712,10.2790039 7.9480039,10.2453938 L7.58550487,9.98632164 L7.22307797,10.2453938 C7.17612476,10.2789318 7.11359259,10.2334211 7.13090253,10.178462 L7.26534308,9.7537193 L6.90695517,9.48902144 C6.86057895,9.45469006 6.88445224,9.38119493 6.94215205,9.38069006 L7.38766667,9.37730019 L7.52859844,8.95464912 C7.546846,8.89983431 7.62423587,8.89983431 7.64248343,8.95464912 Z" id="Path" fill="#F5F5F5" fill-rule="nonzero"></path>
                                    <path d="M9.35854776,1.19489084 L9.49947953,1.61754191 L9.94499415,1.62093177 C10.002694,1.62143665 10.0265673,1.6950039 9.98019103,1.72926316 L9.62180312,1.99396101 L9.75624366,2.4187037 C9.77369786,2.47366277 9.71102144,2.51924561 9.66406823,2.48563548 L9.30164133,2.22656335 L8.93921442,2.48563548 C8.89226121,2.51917349 8.82972904,2.47366277 8.84703899,2.4187037 L8.98147953,1.99396101 L8.62309162,1.72926316 C8.5767154,1.69493177 8.60058869,1.62143665 8.6582885,1.62093177 L9.10380312,1.61754191 L9.24473489,1.19489084 C9.26298246,1.14022027 9.34030019,1.14022027 9.35854776,1.19489084 Z" id="Path" fill="#F5F5F5" fill-rule="nonzero"></path>
                                    <path d="M9.35854776,3.40587524 L9.49947953,3.82852632 L9.94499415,3.83191618 C10.002694,3.83242105 10.0265673,3.9059883 9.98019103,3.94024756 L9.62180312,4.20494542 L9.75624366,4.62968811 C9.77369786,4.68464717 9.71102144,4.73023002 9.66406823,4.69661988 L9.30164133,4.43754776 L8.93921442,4.69661988 C8.89226121,4.73015789 8.82972904,4.6847193 8.84703899,4.62968811 L8.98147953,4.20494542 L8.62309162,3.94024756 C8.5767154,3.90591618 8.60058869,3.83242105 8.6582885,3.83191618 L9.10380312,3.82852632 L9.24473489,3.40587524 C9.26298246,3.35113255 9.34030019,3.35113255 9.35854776,3.40587524 Z" id="Path" fill="#F5F5F5" fill-rule="nonzero"></path>
                                    <path d="M9.35854776,5.61678752 L9.49947953,6.0394386 L9.94499415,6.04282846 C10.002694,6.04333333 10.0265673,6.11690058 9.98019103,6.15115984 L9.62180312,6.4158577 L9.75624366,6.84060039 C9.77369786,6.89555945 9.71102144,6.9411423 9.66406823,6.90753216 L9.30164133,6.64846004 L8.93921442,6.90753216 C8.89226121,6.94107018 8.82972904,6.89555945 8.84703899,6.84060039 L8.98147953,6.4158577 L8.62309162,6.15115984 C8.5767154,6.11682846 8.60058869,6.04333333 8.6582885,6.04282846 L9.10380312,6.0394386 L9.24473489,5.61678752 C9.26298246,5.56204483 9.34030019,5.56204483 9.35854776,5.61678752 Z" id="Path" fill="#F5F5F5" fill-rule="nonzero"></path>
                                    <path d="M9.35854776,7.82769981 L9.49947953,8.25035088 L9.94499415,8.25374074 C10.002694,8.25424561 10.0265673,8.32781287 9.98019103,8.36207212 L9.62180312,8.62676998 L9.75624366,9.05151267 C9.77369786,9.10647173 9.71102144,9.15205458 9.66406823,9.11844444 L9.30164133,8.85937232 L8.93921442,9.11844444 C8.89226121,9.15198246 8.82972904,9.10647173 8.84703899,9.05151267 L8.98147953,8.62676998 L8.62309162,8.36207212 C8.5767154,8.32774074 8.60058869,8.25424561 8.6582885,8.25374074 L9.10380312,8.25035088 L9.24473489,7.82769981 C9.26298246,7.77302924 9.34030019,7.77302924 9.35854776,7.82769981 Z" id="Path" fill="#F5F5F5" fill-rule="nonzero"></path>
                                    <path d="M11.0746842,0.110927875 L11.215616,0.533578947 L11.6611306,0.536968811 C11.7188304,0.537473684 11.7427037,0.611040936 11.6963275,0.645300195 L11.3379396,0.909998051 L11.4723801,1.33474074 C11.4898343,1.38969981 11.4271579,1.43528265 11.3802047,1.40167251 L11.0177778,1.14260039 L10.6553509,1.40167251 C10.6083977,1.43521053 10.5458655,1.38969981 10.5631754,1.33474074 L10.697616,0.909998051 L10.3392281,0.645300195 C10.2928519,0.610968811 10.3167251,0.537473684 10.374425,0.536968811 L10.8199396,0.533578947 L10.9608713,0.110927875 C10.9789747,0.0561851852 11.0564366,0.0561851852 11.0746842,0.110927875 Z" id="Path" fill="#F5F5F5" fill-rule="nonzero"></path>
                                    <path d="M11.0746842,2.32184016 L11.215616,2.74449123 L11.6611306,2.74788109 C11.7188304,2.74838596 11.7427037,2.82195322 11.6963275,2.85621248 L11.3379396,3.12091033 L11.4723801,3.54565302 C11.4898343,3.60061209 11.4271579,3.64619493 11.3802047,3.6125848 L11.0177778,3.35351267 L10.6553509,3.6125848 C10.6083977,3.64612281 10.5458655,3.60061209 10.5631754,3.54565302 L10.697616,3.12091033 L10.3392281,2.85621248 C10.2928519,2.82188109 10.3167251,2.74838596 10.374425,2.74788109 L10.8199396,2.74449123 L10.9608713,2.32184016 C10.9789747,2.26716959 11.0564366,2.26716959 11.0746842,2.32184016 Z" id="Path" fill="#F5F5F5" fill-rule="nonzero"></path>
                                    <path d="M11.0746842,4.53275244 L11.215616,4.95540351 L11.6611306,4.95879337 C11.7188304,4.95929825 11.7427037,5.0328655 11.6963275,5.06712476 L11.3379396,5.33182261 L11.4723801,5.7565653 C11.4898343,5.81152437 11.4271579,5.85710721 11.3802047,5.82349708 L11.0177778,5.56442495 L10.6553509,5.82349708 C10.6083977,5.85703509 10.5458655,5.81152437 10.5631754,5.7565653 L10.697616,5.33182261 L10.3392281,5.06712476 C10.2928519,5.03279337 10.3167251,4.95929825 10.374425,4.95879337 L10.8199396,4.95540351 L10.9608713,4.53275244 C10.9789747,4.47808187 11.0564366,4.47808187 11.0746842,4.53275244 Z" id="Path" fill="#F5F5F5" fill-rule="nonzero"></path>
                                    <path d="M11.0746842,6.74373684 L11.215616,7.16638791 L11.6611306,7.16977778 C11.7188304,7.17028265 11.7427037,7.2438499 11.6963275,7.27810916 L11.3379396,7.54280702 L11.4723801,7.96754971 C11.4898343,8.02250877 11.4271579,8.06809162 11.3802047,8.03448148 L11.0177778,7.77540936 L10.6553509,8.03448148 C10.6083977,8.06801949 10.5458655,8.02250877 10.5631754,7.96754971 L10.697616,7.54280702 L10.3392281,7.27810916 C10.2928519,7.24377778 10.3167251,7.17028265 10.374425,7.16977778 L10.8199396,7.16638791 L10.9608713,6.74373684 C10.9789747,6.68899415 11.0564366,6.68899415 11.0746842,6.74373684 Z" id="Path" fill="#F5F5F5" fill-rule="nonzero"></path>
                                    <path d="M11.0746842,8.95464912 L11.215616,9.37730019 L11.6611306,9.38069006 C11.7188304,9.38119493 11.7427037,9.45476218 11.6963275,9.48902144 L11.3379396,9.7537193 L11.4723801,10.178462 C11.4898343,10.2334211 11.4271579,10.2790039 11.3802047,10.2453938 L11.0177778,9.98632164 L10.6553509,10.2453938 C10.6083977,10.2789318 10.5458655,10.2334211 10.5631754,10.178462 L10.697616,9.7537193 L10.3392281,9.48902144 C10.2928519,9.45469006 10.3167251,9.38119493 10.374425,9.38069006 L10.8199396,9.37730019 L10.9608713,8.95464912 C10.9789747,8.89983431 11.0564366,8.89983431 11.0746842,8.95464912 Z" id="Path" fill="#F5F5F5" fill-rule="nonzero"></path>
                                    <path d="M12.7907485,1.19489084 L12.9316803,1.61754191 L13.3771949,1.62093177 C13.4348947,1.62143665 13.458768,1.6950039 13.4123918,1.72926316 L13.0540039,1.99396101 L13.1884444,2.4187037 C13.2058986,2.47366277 13.1432222,2.51924561 13.096269,2.48563548 L12.7338421,2.22656335 L12.3714152,2.48563548 C12.324462,2.51917349 12.2619298,2.47366277 12.2792398,2.4187037 L12.4136803,1.99396101 L12.0552924,1.72926316 C12.0089162,1.69493177 12.0327895,1.62143665 12.0904893,1.62093177 L12.5360039,1.61754191 L12.6769357,1.19489084 C12.6951111,1.14022027 12.7725731,1.14022027 12.7907485,1.19489084 Z" id="Path" fill="#F5F5F5" fill-rule="nonzero"></path>
                                    <path d="M12.7907485,3.40587524 L12.9316803,3.82852632 L13.3771949,3.83191618 C13.4348947,3.83242105 13.458768,3.9059883 13.4123918,3.94024756 L13.0540039,4.20494542 L13.1884444,4.62968811 C13.2058986,4.68464717 13.1432222,4.73023002 13.096269,4.69661988 L12.7338421,4.43754776 L12.3714152,4.69661988 C12.324462,4.73015789 12.2619298,4.6847193 12.2792398,4.62968811 L12.4136803,4.20494542 L12.0552924,3.94024756 C12.0089162,3.90591618 12.0327895,3.83242105 12.0904893,3.83191618 L12.5360039,3.82852632 L12.6769357,3.40587524 C12.6951111,3.35113255 12.7725731,3.35113255 12.7907485,3.40587524 Z" id="Path" fill="#F5F5F5" fill-rule="nonzero"></path>
                                    <path d="M12.7907485,5.61678752 L12.9316803,6.0394386 L13.3771949,6.04282846 C13.4348947,6.04333333 13.458768,6.11690058 13.4123918,6.15115984 L13.0540039,6.4158577 L13.1884444,6.84060039 C13.2058986,6.89555945 13.1432222,6.9411423 13.096269,6.90753216 L12.7338421,6.64846004 L12.3714152,6.90753216 C12.324462,6.94107018 12.2619298,6.89555945 12.2792398,6.84060039 L12.4136803,6.4158577 L12.0552924,6.15115984 C12.0089162,6.11682846 12.0327895,6.04333333 12.0904893,6.04282846 L12.5360039,6.0394386 L12.6769357,5.61678752 C12.6951111,5.56204483 12.7725731,5.56204483 12.7907485,5.61678752 Z" id="Path" fill="#F5F5F5" fill-rule="nonzero"></path>
                                    <path d="M12.7907485,7.82769981 L12.9316803,8.25035088 L13.3771949,8.25374074 C13.4348947,8.25424561 13.458768,8.32781287 13.4123918,8.36207212 L13.0540039,8.62676998 L13.1884444,9.05151267 C13.2058986,9.10647173 13.1432222,9.15205458 13.096269,9.11844444 L12.7338421,8.85937232 L12.3714152,9.11844444 C12.324462,9.15198246 12.2619298,9.10647173 12.2792398,9.05151267 L12.4136803,8.62676998 L12.0552924,8.36207212 C12.0089162,8.32774074 12.0327895,8.25424561 12.0904893,8.25374074 L12.5360039,8.25035088 L12.6769357,7.82769981 C12.6951111,7.77302924 12.7725731,7.77302924 12.7907485,7.82769981 Z" id="Path" fill="#F5F5F5" fill-rule="nonzero"></path>
                                    <path d="M14.506885,0.110927875 L14.6478168,0.533578947 L15.0933314,0.536968811 C15.1510312,0.537473684 15.1749045,0.611040936 15.1285283,0.645300195 L14.7701404,0.909998051 L14.9045809,1.33474074 C14.9220351,1.38969981 14.8593587,1.43528265 14.8124055,1.40167251 L14.4499786,1.14260039 L14.0875517,1.40167251 C14.0405984,1.43521053 13.9780663,1.38969981 13.9953762,1.33474074 L14.1298168,0.909998051 L13.7714288,0.645300195 C13.7250526,0.610968811 13.7489259,0.537473684 13.8066257,0.536968811 L14.2521404,0.533578947 L14.3930721,0.110927875 C14.4112476,0.0561851852 14.4885653,0.0561851852 14.506885,0.110927875 Z" id="Path" fill="#F5F5F5" fill-rule="nonzero"></path>
                                    <path d="M14.506885,2.32184016 L14.6478168,2.74449123 L15.0933314,2.74788109 C15.1510312,2.74838596 15.1749045,2.82195322 15.1285283,2.85621248 L14.7701404,3.12091033 L14.9045809,3.54565302 C14.9220351,3.60061209 14.8593587,3.64619493 14.8124055,3.6125848 L14.4499786,3.35351267 L14.0875517,3.6125848 C14.0405984,3.64612281 13.9780663,3.60061209 13.9953762,3.54565302 L14.1298168,3.12091033 L13.7714288,2.85621248 C13.7250526,2.82188109 13.7489259,2.74838596 13.8066257,2.74788109 L14.2521404,2.74449123 L14.3930721,2.32184016 C14.4112476,2.26716959 14.4885653,2.26716959 14.506885,2.32184016 Z" id="Path" fill="#F5F5F5" fill-rule="nonzero"></path>
                                    <path d="M14.506885,4.53275244 L14.6478168,4.95540351 L15.0933314,4.95879337 C15.1510312,4.95929825 15.1749045,5.0328655 15.1285283,5.06712476 L14.7701404,5.33182261 L14.9045809,5.7565653 C14.9220351,5.81152437 14.8593587,5.85710721 14.8124055,5.82349708 L14.4499786,5.56442495 L14.0875517,5.82349708 C14.0405984,5.85703509 13.9780663,5.81152437 13.9953762,5.7565653 L14.1298168,5.33182261 L13.7714288,5.06712476 C13.7250526,5.03279337 13.7489259,4.95929825 13.8066257,4.95879337 L14.2521404,4.95540351 L14.3930721,4.53275244 C14.4112476,4.47808187 14.4885653,4.47808187 14.506885,4.53275244 Z" id="Path" fill="#F5F5F5" fill-rule="nonzero"></path>
                                    <path d="M14.506885,6.74373684 L14.6478168,7.16638791 L15.0933314,7.16977778 C15.1510312,7.17028265 15.1749045,7.2438499 15.1285283,7.27810916 L14.7701404,7.54280702 L14.9045809,7.96754971 C14.9220351,8.02250877 14.8593587,8.06809162 14.8124055,8.03448148 L14.4499786,7.77540936 L14.0875517,8.03448148 C14.0405984,8.06801949 13.9780663,8.02250877 13.9953762,7.96754971 L14.1298168,7.54280702 L13.7714288,7.27810916 C13.7250526,7.24377778 13.7489259,7.17028265 13.8066257,7.16977778 L14.2521404,7.16638791 L14.3930721,6.74373684 C14.4112476,6.68899415 14.4885653,6.68899415 14.506885,6.74373684 Z" id="Path" fill="#F5F5F5" fill-rule="nonzero"></path>
                                    <path d="M14.506885,8.95464912 L14.6478168,9.37730019 L15.0933314,9.38069006 C15.1510312,9.38119493 15.1749045,9.45476218 15.1285283,9.48902144 L14.7701404,9.7537193 L14.9045809,10.178462 C14.9220351,10.2334211 14.8593587,10.2790039 14.8124055,10.2453938 L14.4499786,9.98632164 L14.0875517,10.2453938 C14.0405984,10.2789318 13.9780663,10.2334211 13.9953762,10.178462 L14.1298168,9.7537193 L13.7714288,9.48902144 C13.7250526,9.45469006 13.7489259,9.38119493 13.8066257,9.38069006 L14.2521404,9.37730019 L14.3930721,8.95464912 C14.4112476,8.89983431 14.4885653,8.89983431 14.506885,8.95464912 Z" id="Path" fill="#F5F5F5" fill-rule="nonzero"></path>
                                </g>
                            </g>
                        </g>
                    </g>
                </g>
            </g>
        </g>
    </g>
</svg>