<svg width="35" height="35" viewBox="0 0 35 35" fill="none" xmlns="http://www.w3.org/2000/svg">
<path fill-rule="evenodd" clip-rule="evenodd" d="M17.5 35C27.165 35 35 27.165 35 17.5C35 7.83502 27.165 0 17.5 0C7.83502 0 0 7.83502 0 17.5C0 27.165 7.83502 35 17.5 35Z" fill="white"/>
<path d="M21.7427 9C24.6426 9 27 11.1765 27 13.8772C27 14.7172 26.7609 15.5387 26.3225 16.2806C25.6634 17.3596 24.6028 18.1597 23.3245 18.5399C22.9842 18.6379 22.7236 18.6809 22.4845 18.6809C21.9235 18.6809 21.4821 18.2425 21.4821 17.6784C21.4821 17.1144 21.9205 16.676 22.4845 16.676C22.5244 16.676 22.6071 16.676 22.7052 16.6362C23.5636 16.3971 24.2441 15.8943 24.6242 15.2352C24.8817 14.8153 25.0044 14.3554 25.0044 13.8742C25.0044 12.2924 23.5452 10.9926 21.7611 10.9926C21.1418 10.9926 20.541 11.1551 20.0045 11.4524C19.0634 11.9981 18.4994 12.8963 18.4994 13.8803V22.2583C18.4994 23.9566 17.5582 25.52 15.9979 26.3998C15.158 26.878 14.2168 27.1171 13.2573 27.1171C10.3604 27.1202 8 24.9437 8 22.243C8 21.403 8.23911 20.5815 8.67748 19.8396C9.33656 18.7606 10.3972 17.9605 11.6755 17.5803C12.0373 17.4823 12.2764 17.4393 12.5155 17.4393C13.0765 17.4393 13.5179 17.8777 13.5179 18.4418C13.5179 19.0027 13.0795 19.4442 12.5155 19.4442C12.4756 19.4442 12.3929 19.4442 12.2948 19.484C11.4364 19.7415 10.7559 20.2443 10.3758 20.885C10.1183 21.3049 9.99564 21.7648 9.99564 22.246C9.99564 23.8278 11.4548 25.1276 13.2573 25.1276C13.8766 25.1276 14.4774 24.9651 15.0139 24.6678C15.955 24.1252 16.5129 23.227 16.5129 22.246V13.8833C16.5129 12.1851 17.451 10.6217 19.0144 9.74185C19.842 9.24524 20.7801 9 21.7427 9Z" fill="#29A347"/>
</svg>
