<?xml version="1.0" encoding="UTF-8"?>
<svg width="19px" height="18px" viewBox="0 0 19 18" version="1.1" xmlns="http://www.w3.org/2000/svg" xmlns:xlink="http://www.w3.org/1999/xlink">
    <!-- Generator: Sketch 55 (78076) - https://sketchapp.com -->
    <title>Group 7</title>
    <desc>Created with Sketch.</desc>
    <g id="Symbols" stroke="none" stroke-width="1" fill="none" fill-rule="evenodd">
        <g id="Footer" transform="translate(-273.000000, -120.000000)" fill="#0078BA">
            <g id="Group-5">
                <g transform="translate(265.000000, 112.000000)">
                    <g id="Group-7" transform="translate(8.000000, 8.000000)">
                        <polygon id="Path" points="3.95290828 17.737321 0.101407407 17.737321 0.101407407 5.36372473 3.95290828 5.36372473"></polygon>
                        <path d="M2.00160793,3.84536099 C0.785511285,3.84536099 -2.66453526e-14,2.98529774 -2.66453526e-14,1.92307611 C-2.66453526e-14,0.834744002 0.810863137,1.77191595e-13 2.05191551,1.77191595e-13 C3.29415625,1.77191595e-13 4.05431568,0.834744002 4.07887529,1.92307611 C4.07887529,2.98529774 3.29415625,3.84536099 2.00160793,3.84536099 L2.00160793,3.84536099 Z" id="Path"></path>
                        <path d="M18.013283,17.737321 L14.1621782,17.737321 L14.1621782,10.8797606 C14.1621782,9.28583469 13.6044375,8.1978982 12.211274,8.1978982 C11.1468924,8.1978982 10.5142844,8.93176082 10.2354141,9.64030419 C10.1340067,9.89310107 10.1078626,10.2475706 10.1078626,10.6016444 L10.1078626,17.737321 L6.25755006,17.737321 L6.25755006,9.31115394 C6.25755006,7.76786657 6.20724248,6.47737608 6.15614265,5.36332911 L9.50021036,5.36332911 L9.67767332,7.08424684 L9.75333275,7.08424684 C10.2599737,6.27442648 11.5014222,5.08521298 13.5794818,5.08521298 C16.1130825,5.08521298 18.0124907,6.78041585 18.0124907,10.4240141 L18.0124907,17.737321 L18.013283,17.737321 Z" id="Path"></path>
                    </g>
                </g>
            </g>
        </g>
    </g>
</svg>