<?xml version="1.0" encoding="UTF-8"?>
<svg width="21px" height="18px" viewBox="0 0 21 18" version="1.1" xmlns="http://www.w3.org/2000/svg" xmlns:xlink="http://www.w3.org/1999/xlink">
    <!-- Generator: Sketch 55 (78076) - https://sketchapp.com -->
    <title>Wechat</title>
    <desc>Created with Sketch.</desc>
    <g id="Symbols" stroke="none" stroke-width="1" fill="none" fill-rule="evenodd">
        <g id="Footer" transform="translate(-172.000000, -121.000000)" fill="#29A347" fill-rule="nonzero">
            <g id="Group-5">
                <g transform="translate(165.000000, 112.000000)">
                    <g id="Wechat" transform="translate(7.000000, 9.000000)">
                        <path d="M14.2144074,5.17533333 C14.4546861,5.17699413 14.6946912,5.19188085 14.9333333,5.21992593 C14.2890741,2.2247037 11.088,0 7.4327037,0 C3.34677778,-1.43917799e-15 0,2.78392593 0,6.321 C0,8.36188889 1.113,10.038 2.97422222,11.34 L2.23144444,13.5750741 L4.83,12.2733333 C5.75918519,12.4548148 6.50481481,12.6448519 7.4327037,12.6448519 C7.66603704,12.6448519 7.8972963,12.6342222 8.1257037,12.6173704 C7.97564646,12.1111509 7.89830504,11.586172 7.896,11.0581852 C7.8972963,7.8107037 10.6851111,5.17533333 14.2144074,5.17533333 L14.2144074,5.17533333 Z M10.2192222,3.16166667 C10.781037,3.16166667 11.1497037,3.53059259 11.1497037,4.08955556 C11.1497037,4.64851852 10.7807778,5.01874074 10.2192222,5.01874074 C9.66414815,5.01874074 9.10440741,4.64592593 9.10440741,4.08955556 C9.10492593,3.528 9.66259259,3.16166667 10.2192222,3.16166667 Z M5.0177037,5.0177037 C4.45977778,5.0177037 3.89822222,4.64488889 3.89822222,4.08851852 C3.89822222,3.53214815 4.45925926,3.16166667 5.0177037,3.16166667 C5.57614815,3.16166667 5.94559259,3.52903704 5.94559259,4.08955556 C5.94559259,4.64488889 5.57562963,5.0177037 5.0177037,5.0177037 Z M21,10.9684815 C21,7.99711111 18.0257778,5.57588889 14.6854815,5.57588889 C11.1484074,5.57588889 8.36448148,7.99866667 8.36448148,10.9684815 C8.36448148,13.9478889 11.1497037,16.3610741 14.6854815,16.3610741 C15.4256667,16.3610741 16.1725926,16.175963 16.9151111,15.9895556 L18.9534074,17.1077407 L18.3941852,15.2491111 C19.887,14.1283333 21,12.6445926 21,10.9684815 Z M12.6355185,10.038 C12.2665926,10.038 11.8927407,9.67062963 11.8927407,9.29522222 C11.8927407,8.925 12.2668519,8.55244444 12.6355185,8.55244444 C13.1999259,8.55244444 13.566,8.92525926 13.566,9.29522222 C13.566,9.67062963 13.1999259,10.038 12.6355185,10.038 Z M16.724037,10.038 C16.357963,10.038 15.9851481,9.67062963 15.9851481,9.29522222 C15.9851481,8.925 16.3566667,8.55244444 16.724037,8.55244444 C17.2832593,8.55244444 17.6545185,8.92525926 17.6545185,9.29522222 C17.6555556,9.67062963 17.283,10.038 16.7237778,10.038 L16.724037,10.038 Z" id="Shape"></path>
                    </g>
                </g>
            </g>
        </g>
    </g>
</svg>