<?xml version="1.0" encoding="UTF-8"?>
<svg width="23px" height="19px" viewBox="0 0 23 19" version="1.1" xmlns="http://www.w3.org/2000/svg" xmlns:xlink="http://www.w3.org/1999/xlink">
    <!-- Generator: Sketch 55 (78076) - https://sketchapp.com -->
    <title>Weibo</title>
    <desc>Created with Sketch.</desc>
    <g id="Symbols" stroke="none" stroke-width="1" fill="none" fill-rule="evenodd">
        <g id="Footer" transform="translate(-221.000000, -120.000000)" fill-rule="nonzero">
            <g id="Group-5">
                <g transform="translate(215.000000, 112.000000)">
                    <g id="Weibo" transform="translate(6.000000, 8.000000)">
                        <path d="M19.5768219,11.4052322 C19.0491833,9.81894463 17.4283628,9.23954745 17.0593713,9.20509625 L17.0593713,9.20503494 C16.6903389,9.17054288 16.3558803,8.96706422 16.6006963,8.54633461 C16.845594,8.12558458 17.2972807,6.90134108 16.4283586,6.03924385 C15.5592526,5.17363201 13.658981,5.50124531 12.3140562,6.0599636 C10.9725642,6.6186206 11.0450016,6.22897063 11.0863594,5.84612507 C11.1311705,5.44266192 11.8553812,3.18725288 9.64137079,2.91483095 C6.74107458,2.55963218 3.02007977,6.14960618 1.70607109,8.21882348 C-0.280328474,11.3431955 0.0334920833,13.4572443 0.0334920833,13.4572443 L0.0473052514,13.4572443 C0.28527597,16.3748274 4.58225554,18.6991184 9.84826187,18.6991184 C14.376326,18.6991184 18.1904371,16.9781933 19.3181723,14.6400891 C19.3181723,14.6400891 19.3215643,14.6297497 19.3318629,14.6124219 C19.4491522,14.3607811 19.5388561,14.105503 19.5941088,13.8399877 C19.7526742,13.2123261 19.8734782,12.3020258 19.5768219,11.4052322 L19.5768219,11.4052322 Z M9.19659072,17.423096 C5.44788783,17.423096 2.40621094,15.4090496 2.40621094,12.9261319 C2.40621094,10.4431529 5.44445498,8.42914743 9.19659072,8.42914743 C12.945171,8.42914743 15.9868888,10.4431529 15.9868888,12.9261319 C15.9868888,15.4125029 12.945171,17.423096 9.19659072,17.423096 Z" id="Shape" fill="#E71F19"></path>
                        <path d="M18.4286122,7.45662653 C18.4974328,7.48768573 18.5699111,7.50143761 18.6423894,7.50143761 C18.8561666,7.50143761 19.0631394,7.37382924 19.1493083,7.16346443 C19.2907299,6.82894455 19.3630651,6.47380705 19.3630651,6.1047338 C19.3630651,4.60806841 18.1458099,3.3906702 16.6489607,3.3906702 C16.2834429,3.3906702 15.9282645,3.46306676 15.5936629,3.604427 C15.3143344,3.7217368 15.1833545,4.04587638 15.3005008,4.32867862 C15.4178106,4.60800712 15.7419502,4.73906879 16.0246707,4.62182028 C16.2247369,4.53898211 16.4351221,4.4941506 16.652414,4.4941506 C17.5421376,4.4941506 18.2628541,5.21840219 18.2628541,6.1046725 C18.2628541,6.32196433 18.2215576,6.53232915 18.1352457,6.73229319 C18.014687,7.01507499 18.1455443,7.33923498 18.4284078,7.45642219 L18.4286122,7.45662653 L18.4286122,7.45662653 Z" id="Path" fill="#F5AA15"></path>
                        <path d="M16.6180241,0.0040931191 C16.0007224,0.0040931191 15.3903273,0.0937970108 14.8040644,0.266196031 C14.3660887,0.397196387 14.1178194,0.855871375 14.2454074,1.293847 C14.3763873,1.73188394 14.8350623,1.98015325 15.2731605,1.85256531 C15.7099274,1.72430643 16.1628146,1.65927304 16.6180241,1.65944654 C19.2148596,1.65944654 21.3289084,3.77351579 21.3289084,6.37028999 C21.3289084,6.83583068 21.2598221,7.29789763 21.1288217,7.73934701 C20.9978622,8.17738395 21.2426169,8.63949179 21.6805722,8.77049217 C21.7599775,8.79468565 21.8426317,8.80498422 21.9219757,8.80498422 C22.2771541,8.80498422 22.6048287,8.57387923 22.715191,8.21874175 C22.8945171,7.62218025 22.9876129,7.00140486 22.9876129,6.37028999 C22.9842414,2.85951696 20.1286949,0.0040931191 16.6180241,0.0040931191 L16.6180241,0.0040931191 Z" id="Path" fill="#F5AA15"></path>
                        <path d="M8.56888829,10.0706468 C6.56869599,10.0706468 4.94783465,11.4879682 4.94783465,13.2399729 C4.94783465,14.9917733 6.56863469,16.4092991 8.56888829,16.4092991 C10.569101,16.4092991 12.1899419,14.9918346 12.1899419,13.2399729 C12.1899624,11.4880295 10.5691215,10.0706468 8.56888829,10.0706468 L8.56888829,10.0706468 Z M7.38600259,15.2987282 C6.68592404,15.2987282 6.1169889,14.7297726 6.1169889,14.0297145 C6.1169889,13.3296564 6.68602622,12.7606804 7.38600259,12.7606804 C8.08616288,12.7606804 8.65507758,13.3296973 8.65507758,14.0297145 C8.65507758,14.7297317 8.08608113,15.2987282 7.38600259,15.2987282 Z M9.75870102,13.0123825 C9.60698089,13.2778774 9.30004649,13.3882806 9.07588893,13.2571577 C8.85177225,13.1295697 8.79656044,12.8088834 8.948301,12.5433681 C9.10004156,12.2777302 9.40695553,12.1673474 9.63109265,12.2984499 C9.8552502,12.4294707 9.91042115,12.7502387 9.75870102,13.0123825 L9.75870102,13.0123825 Z" id="Shape" fill="#040000"></path>
                    </g>
                </g>
            </g>
        </g>
    </g>
</svg>